# xmcd
# 
# Track frame offsets:
#     150
#     17717
#     35285
#     52164
#     68398
#     82964
#     100094
#     113311
#     131973
#     148366
#     164273
#     177296
#     194867
# 
# Disc length: 2827
# 
# Revision: 1
# Processed by: cddbd v1.5.2PL0 Copyright (c) Steve Scherf et al.
# Submitted via: fre:ac v1.0.17
# 
DISCID=b20b090d
DTITLE=Luke Bryan - Spring Break... The Set List
DYEAR=2015
DGENRE=Country
TTITLE0=If You Ain't Here To Party
TTITLE1=Suntan City
TTITLE2=Good Lookin' Girl
TTITLE3=She Get Me High
TTITLE4=My Ol' Bronco
TTITLE5=Spring Breakdown
TTITLE6=Games
TTITLE7=Little Bit Later On
TTITLE8=Buzzkill
TTITLE9=Checkin' Out
TTITLE10=Just A Sip
TTITLE11=Shore Thing
TTITLE12=Cold Beer Drinker
EXTD=
EXTT0=
EXTT1=
EXTT2=
EXTT3=
EXTT4=
EXTT5=
EXTT6=
EXTT7=
EXTT8=
EXTT9=
EXTT10=
EXTT11=
EXTT12=
PLAYORDER=
